<?xml version="1.0" encoding="utf-8"?>
<!-- Generator: Adobe Illustrator 23.0.0, SVG Export Plug-In . SVG Version: 6.00 Build 0)  -->
<svg version="1.1"
	 id="svg8" xmlns:cc="http://creativecommons.org/ns#" xmlns:dc="http://purl.org/dc/elements/1.1/" xmlns:inkscape="http://www.inkscape.org/namespaces/inkscape" xmlns:rdf="http://www.w3.org/1999/02/22-rdf-syntax-ns#" xmlns:sodipodi="http://sodipodi.sourceforge.net/DTD/sodipodi-0.dtd" xmlns:svg="http://www.w3.org/2000/svg"
	 xmlns="http://www.w3.org/2000/svg" xmlns:xlink="http://www.w3.org/1999/xlink" x="0px" y="0px" viewBox="0 0 705 841.9"
	 style="enable-background:new 0 0 705 841.9;" xml:space="preserve">
<style type="text/css">
	.st0{fill:#FCFCFC;}
	.st1{fill:#181818;}
	.st2{fill:none;}
	.st3{fill:#F9F9F9;}
	.st4{font-family:'BacktoBlackDemo';}
	.st5{font-size:111px;}
</style>
<sodipodi:namedview  bordercolor="#666666" borderopacity="1.0" id="base" inkscape:current-layer="layer1" inkscape:cx="-37.142857" inkscape:cy="560" inkscape:document-units="mm" inkscape:pageopacity="0.0" inkscape:pageshadow="2" inkscape:window-height="1057" inkscape:window-maximized="1" inkscape:window-width="1920" inkscape:window-x="-8" inkscape:window-y="-8" inkscape:zoom="0.35" pagecolor="#ffffff" showgrid="false">
	</sodipodi:namedview>
<g id="layer1" inkscape:groupmode="layer" inkscape:label="Capa 1">
	<g id="g21" transform="translate(-0.75594857,16.630953)">
		<path id="path25" inkscape:connector-curvature="0" class="st0" d="M302.5,629.3c-26.8-4.1-45.3-17.2-56.7-40.1
			c-10-20.1-13.2-40-18-112.7c-2.4-35.9-9.1-57.8-22.5-73.6c-9.5-11.2-21.7-18.1-39.1-22.1c-7.6-1.7-12.7-2-47.6-2.5l-39.1-0.6
			l0.1-2.3c0.1-1.3,0.2-4.1,0.2-6.3l0.1-4l29.9,0c32.6,0,43.1-1,54.2-5c15.5-5.6,26.9-16.1,34.5-31.7c8-16.5,11.4-35.1,11.4-63.3
			c0-27.4-3-43.7-11.4-60.9c-4.1-8.4-5.9-10.9-13-17.9c-6.6-6.6-9.7-8.8-16.1-11.9c-17.6-8.3-31.7-10.5-66.2-10l-23.3,0.3l-0.1-4.1
			c-0.1-5.2-0.1-6.7,0-7.9c0.1-0.6,14.2-0.9,40.1-0.9c34.3,0,42.1,0.3,54.5,1.8c36.4,4.6,59.5,14.6,79.9,34.6
			c14.2,13.9,21.9,27,27,45.6c2.4,8.7,2.5,10.2,2.5,32c0,22-0.1,23.3-2.5,32.3c-10.1,37-36.9,60.1-81.6,70.2
			c-5.4,1.2-10,2.4-10.2,2.6c-0.2,0.2,1.6,0.7,4.1,1c7.2,1,23.6,5.1,32.3,8.1c36.2,12.4,60,36,68.3,67.7c3.3,12.5,5.4,35.2,7.1,75.3
			c1.5,35.3,2.8,46,7.7,60.8c4.5,13.8,10.7,22.3,19.7,27.1c5.4,2.9,6.8,3.2,13.6,3.2c10.7,0,19.8-3,34.2-11.2l3.1-1.8l3.2,3.7
			c1.8,2.1,3.1,4.2,3,4.7c-0.2,0.5-3.6,3.5-7.8,6.6c-14.2,10.7-27.9,14.5-52.5,14.3C317.6,630.6,307.3,630,302.5,629.3L302.5,629.3z
			 M415.9,466c-2.8-40.6-17.4-65.9-44.5-77.3c-12.2-5.1-18.7-6-48.1-6.5l-27.6-0.5V375v-6.8l24.7-0.6c13.6-0.3,27.7-1,31.3-1.6
			c20.5-3.1,32.4-8.3,42.9-18.7c13.2-13.1,19.3-30.6,21.3-60.8l0.7-10.3h5h5v99.6v99.6h-5h-5L415.9,466z M506.8,258.3
			c-2.4-24-9.3-40.8-22.4-54.9c-16.9-18-38.8-27.9-70.9-31.8c-4.4-0.5-20.5-1-35.9-1s-40.1-0.3-54.9-0.6l-27-0.6v-5.9v-5.9l110,0.2
			l110,0.2l-0.1,2.8c0,1.5-0.1,26.7-0.2,55.9l-0.2,53.1h-3.6H508L506.8,258.3z"/>
		<path id="path23" inkscape:connector-curvature="0" class="st1" d="M0.8,391.3V96.7h296.8h296.8v294.6V686H297.5H0.8V391.3z
			 M348,629.4c11.2-1.9,21-6.2,30-13c4.1-3.1,7.6-6.1,7.8-6.6c0.2-0.5-1.2-2.6-3-4.7l-3.2-3.7l-3.1,1.8
			c-14.4,8.2-23.5,11.2-34.2,11.2c-6.8,0-8.1-0.3-13.6-3.2c-9-4.8-15.2-13.3-19.7-27.1c-4.9-14.8-6.2-25.5-7.7-60.8
			c-1.7-40.1-3.8-62.8-7.1-75.3c-8.3-31.7-32.1-55.3-68.3-67.7c-8.7-3-25.1-7.1-32.3-8.1c-2.5-0.4-4.3-0.8-4.1-1
			c0.2-0.2,4.8-1.4,10.2-2.6c44.7-10.1,71.5-33.2,81.6-70.2c2.4-9,2.5-10.3,2.5-32.3c0-21.8-0.1-23.3-2.5-32
			c-5.1-18.7-12.8-31.7-27-45.6c-20.4-20-43.5-30-79.9-34.6c-12.4-1.6-20.2-1.8-54.5-1.8c-26,0-40,0.3-40.1,0.9
			c-0.1,1.2-0.1,2.7,0,7.9l0.1,4.1l23.3-0.3c34.5-0.5,48.6,1.7,66.2,10c6.5,3.1,9.5,5.3,16.1,11.9c7.1,7,8.8,9.5,13,17.9
			c8.4,17.2,11.5,33.5,11.4,60.9c0,28.2-3.4,46.8-11.4,63.3c-7.6,15.6-19,26.1-34.5,31.7c-11.1,4-21.6,5-54.2,5l-29.9,0l-0.1,4
			c-0.1,2.2-0.2,5-0.2,6.3l-0.1,2.3l39.1,0.6c34.9,0.5,40,0.8,47.6,2.5c17.4,3.9,29.6,10.8,39.1,22.1c13.4,15.8,20.1,37.7,22.5,73.6
			c4.8,72.7,8,92.6,18,112.7c11.4,22.9,29.8,36,56.7,40.1C314.5,631.1,337.6,631.1,348,629.4L348,629.4z M426.6,375.9v-99.6h-5h-5
			l-0.7,10.3c-1.9,30.2-8.1,47.7-21.3,60.8c-10.5,10.4-22.4,15.6-42.9,18.7c-3.6,0.5-17.7,1.3-31.3,1.6l-24.7,0.6v6.8v6.8l27.6,0.5
			c24,0.4,28.6,0.7,35.4,2.4c36.1,9.1,54,34.6,57.3,81.3l0.7,9.6h5h5L426.6,375.9z M515.3,216.6c0.1-29.2,0.2-54.3,0.2-55.9l0.1-2.8
			l-110-0.2l-110-0.2v5.9v5.9l27,0.6c14.9,0.3,39.6,0.6,54.9,0.6c28.5,0,37.4,0.6,52.3,3.7c35.1,7.3,60.3,27.2,71,56.1
			c3.2,8.6,4.7,15.9,5.9,27.9l1.1,11.4h3.6h3.6L515.3,216.6z"/>
	</g>
</g>
<rect x="367" y="577.6" class="st2" width="392" height="92"/>
<text transform="matrix(1 0 0 1 367 667.4834)" class="st3 st4 st5">Música</text>
</svg>
